<svg width="256" height="42" viewBox="0 0 256 42" fill="none" xmlns="http://www.w3.org/2000/svg">
<g id="Left side Boxes">
<g id="Boxes below">
<path id="Box" d="M7.25148 33.8037H0V41.0552H7.25148V33.8037Z" fill="#55E6A5"/>
<path id="Box_2" d="M30.8618 33.8037H23.6104V41.0552H30.8618V33.8037Z" fill="#C8CFD5"/>
<path id="Box_3" d="M54.6522 41.228H47.041V33.624H54.6522V41.228ZM47.4079 40.8683H54.2997V33.9765H47.4079V40.8683Z" fill="#C8CFD5"/>
<path id="Box_4" d="M78.2704 41.228H70.6592V33.624H78.2704V41.228ZM71.0189 40.8683H77.9107V33.9765H71.0189V40.8683Z" fill="#C8CFD5"/>
<path id="Box_5" d="M101.709 33.8037H94.457V41.0552H101.709V33.8037Z" fill="#C8CFD5"/>
</g>
<g id="Boxes above">
<path id="Box_6" d="M87.5578 0.459473H74.6807V13.3367H87.5578V0.459473Z" fill="#55E6A5"/>
<path id="Box_7" d="M129.498 0.459473H116.621V13.3367H129.498V0.459473Z" fill="#C8CFD5"/>
<path id="Box_8" d="M171.756 13.6533H158.238V0.143066H171.756V13.6533ZM158.879 13.0203H171.115V0.783329H158.879V13.0203Z" fill="#C8CFD5"/>
<path id="Box_9" d="M213.697 13.6533H200.18V0.143066H213.697V13.6533ZM200.82 13.0203H213.057V0.783329H200.82V13.0203Z" fill="#C8CFD5"/>
<path id="Box_10" d="M255.321 0.459473H242.443V13.3367H255.321V0.459473Z" fill="#C8CFD5"/>
</g>
</g>
</svg>
