<svg width="123" height="130" viewBox="0 0 123 130" fill="none" xmlns="http://www.w3.org/2000/svg">
<g id="Lets Start">
<g id="Icon">
<path id="Vector" d="M63.8927 51.407C60.1734 50.7628 56.9736 50.2122 53.7737 49.6616C53.7529 49.5473 53.7426 49.433 53.7218 49.3188C58.8644 48.4045 64.0174 47.4799 69.0457 46.5864C69.5028 51.6563 69.9703 56.8509 70.4482 62.0454C70.3547 62.0974 70.2508 62.1389 70.1573 62.1909C68.734 59.1884 67.3003 56.186 65.7212 52.8614C57.6592 63.396 49.7947 73.6812 41.8678 84.0391C41.1925 83.5197 40.6835 83.1249 40.0186 82.6262C47.9143 72.2994 55.7788 62.0038 63.8927 51.407Z" fill="#55E6A5"/>
</g>
<g id="Content">
<g id="Text">
<path id="Vector_2" d="M21.0899 29.673L12.3838 19.8969L14.4824 18.0269L21.5158 25.9122L25.9416 21.9643L27.6246 23.8448L21.0899 29.673Z" fill="#C8CFD5"/>
<path id="Vector_3" d="M30.4186 21.9852L24.2891 10.4221L32.1017 6.27686L33.2549 8.45857L27.8733 11.3156L31.6965 18.5152L37.1923 15.5959L38.3455 17.7776L30.4186 21.9852ZM29.0057 16.5309L27.8837 14.4115L33.7431 11.3052L34.8652 13.4246L29.0057 16.5309Z" fill="#C8CFD5"/>
<path id="Vector_4" d="M44.4444 15.8866L41.9199 5.6222L38.211 6.53644L37.6084 4.08461L47.8521 1.56006L48.4546 4.01189L44.6418 4.94691L47.1664 15.2113L44.4444 15.8866Z" fill="#C8CFD5"/>
<path id="Vector_5" d="M53.3271 5.93373L52.4648 4.98832C52.9635 4.74937 53.3583 4.45848 53.6596 4.12603C53.9609 3.79358 54.0959 3.51307 54.0855 3.28451C54.0752 3.13906 54.0128 2.99362 53.8985 2.87934C53.7843 2.75467 53.6492 2.65078 53.4726 2.55727C53.1713 2.34949 52.9635 2.16249 52.8492 1.98587C52.735 1.80926 52.6726 1.62226 52.6518 1.40408C52.6311 1.04047 52.7453 0.749571 52.9843 0.521011C53.2232 0.292451 53.5557 0.167782 53.9609 0.147004C54.3349 0.126225 54.6777 0.198949 54.979 0.375564C55.2803 0.552179 55.5296 0.801517 55.727 1.13397C55.9244 1.46642 56.0283 1.85082 56.0595 2.30794C56.0802 2.68194 56.0283 3.04556 55.9036 3.40918C55.779 3.7728 55.592 4.11564 55.3426 4.44809C55.0933 4.77015 54.8024 5.07144 54.4595 5.32078C54.1167 5.5805 53.7427 5.7779 53.3271 5.93373Z" fill="#C8CFD5"/>
<path id="Vector_6" d="M64.36 14.6197C63.56 14.5262 62.8328 14.3392 62.1991 14.0587C61.5653 13.7782 61.0043 13.4146 60.5368 12.9782C60.0693 12.5419 59.6641 12.012 59.3213 11.4199L61.3056 9.64333C61.8147 10.5576 62.3445 11.2017 62.9055 11.5757C63.4665 11.9497 64.1003 12.1783 64.8067 12.2614C65.1911 12.3029 65.5444 12.2925 65.856 12.2198C66.1677 12.1471 66.4274 12.0224 66.6248 11.8458C66.8222 11.6796 66.9365 11.451 66.9677 11.1809C66.9884 10.9835 66.9677 10.7965 66.9053 10.6199C66.843 10.4433 66.7287 10.2771 66.5833 10.1316C66.4378 9.98617 66.2612 9.84072 66.0534 9.70566C65.8456 9.5706 65.6067 9.45632 65.347 9.34204C65.0872 9.22776 64.7963 9.12387 64.4847 9.04076C63.8094 8.79142 63.2276 8.53169 62.7393 8.2408C62.251 7.9499 61.8458 7.61745 61.5446 7.23306C61.2433 6.84866 61.0251 6.4331 60.9108 5.97598C60.7965 5.51885 60.7758 5.02018 60.8381 4.46956C60.9004 3.90854 61.0874 3.40987 61.3991 2.96314C61.7004 2.51641 62.0952 2.1424 62.5731 1.8515C63.051 1.56061 63.5912 1.35283 64.1938 1.23855C64.7963 1.12427 65.4093 1.10349 66.0534 1.17621C66.843 1.2801 67.5287 1.44633 68.1001 1.69567C68.6715 1.945 69.1598 2.25668 69.5546 2.65146C69.9493 3.04625 70.2714 3.50337 70.5104 4.02282L68.5364 5.51885C68.3183 5.14485 68.0689 4.8124 67.7988 4.54228C67.5287 4.27216 67.217 4.05399 66.8742 3.89815C66.5313 3.74232 66.1781 3.63843 65.8041 3.59687C65.3989 3.54493 65.0353 3.55531 64.7236 3.62804C64.4119 3.70076 64.1626 3.82543 63.9756 4.01244C63.7886 4.19944 63.6743 4.428 63.6432 4.69812C63.612 4.91629 63.6432 5.12407 63.7367 5.31107C63.8302 5.49808 63.9652 5.6643 64.1626 5.82014C64.36 5.97598 64.599 6.12142 64.8795 6.25648C65.16 6.39154 65.482 6.51621 65.8353 6.63049C66.5002 6.84866 67.0923 7.098 67.6118 7.38889C68.1312 7.67979 68.5676 8.00185 68.9208 8.36547C69.274 8.72909 69.5234 9.13426 69.6896 9.59138C69.8455 10.0485 69.8974 10.5368 69.8351 11.0666C69.7312 11.9497 69.4299 12.6666 68.9312 13.238C68.4325 13.8094 67.7988 14.2145 67.0196 14.4535C66.2404 14.6924 65.3574 14.734 64.36 14.6197Z" fill="#C8CFD5"/>
<path id="Vector_7" d="M82.6037 20.4681C81.8972 20.0837 81.2946 19.6369 80.796 19.1487C80.2973 18.6604 79.9233 18.1097 79.6532 17.528C79.383 16.9358 79.196 16.3124 79.1025 15.6268L81.6063 14.7125C81.7414 15.7514 81.9907 16.5514 82.3751 17.102C82.7595 17.663 83.2686 18.1097 83.8919 18.4526C84.2348 18.6396 84.5568 18.7539 84.8893 18.8058C85.2113 18.8578 85.4918 18.837 85.7412 18.7435C85.9905 18.6604 86.1775 18.4941 86.3022 18.2552C86.3957 18.0786 86.4476 17.902 86.4476 17.7046C86.4476 17.5176 86.4165 17.3202 86.3334 17.1332C86.2502 16.9358 86.136 16.7488 85.9905 16.541C85.8451 16.3436 85.6684 16.1358 85.4711 15.9384C85.2737 15.741 85.0347 15.5333 84.775 15.3359C84.2348 14.858 83.7984 14.3905 83.4452 13.9437C83.092 13.4866 82.853 13.0295 82.7076 12.562C82.5621 12.0945 82.5206 11.6269 82.5829 11.1594C82.6452 10.6919 82.8011 10.2244 83.0712 9.74652C83.3413 9.25824 83.6945 8.85306 84.1516 8.55178C84.5984 8.25049 85.1074 8.0531 85.6581 7.9596C86.2087 7.8661 86.7905 7.87649 87.393 7.99077C87.9956 8.10505 88.5774 8.31283 89.1488 8.6245C89.8449 9.0089 90.4163 9.41407 90.863 9.8608C91.2993 10.2971 91.6422 10.775 91.8604 11.2945C92.0889 11.8036 92.2136 12.3438 92.2448 12.9152L89.8656 13.5697C89.8033 13.1334 89.689 12.749 89.5436 12.3957C89.3981 12.0425 89.18 11.7308 88.9306 11.4503C88.6709 11.1802 88.38 10.9517 88.0579 10.775C87.6943 10.5777 87.3619 10.453 87.0502 10.401C86.7385 10.3491 86.458 10.3803 86.2087 10.4738C85.9593 10.5673 85.7723 10.7439 85.6477 10.9828C85.5438 11.1802 85.4918 11.3776 85.5126 11.5854C85.5334 11.7932 85.5957 12.001 85.7204 12.2191C85.8451 12.4373 86.0113 12.6555 86.2295 12.8944C86.4476 13.123 86.697 13.3619 86.9775 13.6009C87.5177 14.0476 87.9748 14.5047 88.3488 14.9619C88.7228 15.419 89.0034 15.8865 89.2007 16.354C89.3877 16.8215 89.4813 17.2994 89.4605 17.7773C89.4397 18.2552 89.3046 18.7331 89.0449 19.2006C88.619 19.9798 88.0787 20.5408 87.4034 20.8836C86.7281 21.2265 85.9905 21.3615 85.1698 21.2992C84.3283 21.2161 83.4764 20.946 82.6037 20.4681Z" fill="#C8CFD5"/>
<path id="Vector_8" d="M91.7461 26.5667L98.8938 18.7853L96.0784 16.2088L97.7822 14.3491L105.553 21.4864L103.849 23.3461L100.961 20.6865L93.8135 28.4679L91.7461 26.5667Z" fill="#C8CFD5"/>
<path id="Vector_9" d="M97.2207 31.5226L110.955 28.5098L112.347 30.5876L104.316 42.1195L102.717 39.73L107.101 33.6108C107.225 33.4342 107.392 33.216 107.589 32.9563C107.786 32.6966 108.005 32.4161 108.233 32.1356C108.462 31.8447 108.68 31.5746 108.888 31.3148C109.095 31.0551 109.272 30.8473 109.428 30.6915L109.708 31.107C109.438 31.2005 109.147 31.294 108.846 31.3772C108.545 31.4707 108.233 31.5642 107.911 31.6577C107.589 31.7512 107.277 31.8343 106.966 31.907C106.654 31.9797 106.353 32.0524 106.062 32.1356L98.7895 33.8394L97.2207 31.5226ZM100.836 31.9797L103.215 31.4914L106.561 36.4782L105.22 38.5041L100.836 31.9797Z" fill="#C8CFD5"/>
<path id="Vector_10" d="M105.252 44.4675L117.667 40.3223L119.506 45.8181C119.766 46.5869 119.817 47.3453 119.682 48.0829C119.547 48.8205 119.236 49.4751 118.768 50.0361C118.301 50.5971 117.688 51.0023 116.929 51.2516C116.181 51.5009 115.444 51.5425 114.716 51.3867C113.989 51.2308 113.345 50.8984 112.774 50.3893C112.202 49.8802 111.797 49.2465 111.537 48.4777L110.561 45.548L106.104 47.0336L105.252 44.4675ZM107.6 51.5113L112.15 46.483L113.511 49.0699L108.618 54.6073L107.6 51.5113ZM112.722 44.8311L113.657 47.6362C113.761 47.9583 113.927 48.2076 114.155 48.405C114.384 48.6024 114.654 48.7167 114.966 48.7582C115.277 48.7998 115.6 48.7686 115.922 48.6543C116.275 48.54 116.555 48.353 116.763 48.1141C116.971 47.8751 117.106 47.5842 117.147 47.2414C117.199 46.8986 117.158 46.5246 117.023 46.1402L116.202 43.6779L112.722 44.8311Z" fill="#C8CFD5"/>
<path id="Vector_11" d="M109.179 60.1237L119.713 59.3653L119.443 55.5628L121.957 55.3862L122.716 65.9104L120.202 66.087L119.921 62.1703L109.386 62.9287L109.179 60.1237Z" fill="#C8CFD5"/>
<path id="Vector_12" d="M108.877 75.1772L119.723 84.1223L118.944 86.5014L104.919 87.2909L105.812 84.5586L113.334 84.2365C113.542 84.2261 113.822 84.2158 114.144 84.2158C114.477 84.2158 114.82 84.2158 115.183 84.2158C115.547 84.2158 115.9 84.2158 116.233 84.2262C116.565 84.2262 116.835 84.2365 117.053 84.2573L116.898 84.7352C116.659 84.5794 116.409 84.4132 116.15 84.2262C115.89 84.0391 115.62 83.8521 115.35 83.6651C115.079 83.4677 114.82 83.2704 114.57 83.073C114.321 82.8756 114.072 82.6782 113.833 82.5016L108.005 77.8265L108.877 75.1772ZM110.747 78.3044L112.596 79.8731L110.737 85.5767L108.316 85.7741L110.747 78.3044Z" fill="#C8CFD5"/>
<path id="Vector_13" d="M99.9535 95.3218L109.896 103.841L106.28 108.059C105.771 108.651 105.169 109.067 104.483 109.306C103.797 109.544 103.091 109.586 102.374 109.451C101.657 109.316 100.992 108.994 100.379 108.474C99.7665 107.945 99.3301 107.332 99.0808 106.636C98.8315 105.939 98.7587 105.223 98.873 104.506C98.9873 103.789 99.3094 103.124 99.8184 102.532L101.605 100.444L98.125 97.4619L99.9535 95.3218ZM103.548 102.044L101.938 103.914C101.74 104.142 101.626 104.391 101.595 104.672C101.553 104.952 101.595 105.233 101.699 105.513C101.803 105.794 101.979 106.043 102.239 106.261C102.499 106.48 102.759 106.615 103.049 106.667C103.34 106.719 103.61 106.708 103.87 106.625C104.13 106.542 104.369 106.386 104.566 106.158L106.177 104.288L103.548 102.044Z" fill="#C8CFD5"/>
<path id="Vector_14" d="M85.0863 109.015L91.1847 111.996L89.0757 114.012L82.3955 110.843L85.0863 109.015ZM91.1951 104.807L98.6233 115.581L93.8547 118.874C93.1898 119.331 92.4729 119.601 91.7249 119.674C90.9769 119.747 90.2601 119.632 89.5952 119.331C88.9303 119.03 88.3692 118.552 87.9121 117.897C87.4654 117.253 87.2161 116.557 87.1641 115.809C87.1122 115.061 87.2576 114.355 87.5901 113.669C87.9225 112.983 88.4212 112.412 89.0861 111.955L91.6314 110.199L88.9718 106.334L91.1951 104.807ZM92.9301 112.09L90.499 113.763C90.2185 113.95 90.0211 114.188 89.8964 114.459C89.7718 114.729 89.7406 115.02 89.7822 115.331C89.8237 115.643 89.9484 115.934 90.1458 116.225C90.3639 116.536 90.6133 116.755 90.8938 116.89C91.1743 117.025 91.4964 117.066 91.8496 117.014C92.2028 116.962 92.5353 116.827 92.8781 116.588L95.0183 115.113L92.9301 112.09Z" fill="#C8CFD5"/>
<path id="Vector_15" d="M74.2189 113.815C75.1435 113.514 76.037 113.389 76.9201 113.451C77.7927 113.514 78.6135 113.742 79.3823 114.126C80.1511 114.511 80.816 115.041 81.377 115.726C81.9484 116.412 82.3847 117.212 82.686 118.137C82.9977 119.072 83.1223 119.986 83.0808 120.859C83.0288 121.742 82.8211 122.562 82.4367 123.331C82.0523 124.1 81.5328 124.765 80.8679 125.336C80.203 125.908 79.4134 126.344 78.5096 126.656C77.585 126.957 76.6915 127.082 75.8188 127.019C74.9461 126.957 74.1358 126.728 73.367 126.334C72.5982 125.939 71.9333 125.409 71.3723 124.734C70.8113 124.058 70.3749 123.258 70.0632 122.334C69.762 121.409 69.6269 120.505 69.6788 119.622C69.7308 118.739 69.9386 117.908 70.323 117.139C70.7074 116.371 71.2268 115.695 71.8813 115.124C72.5255 114.552 73.3046 114.116 74.2189 113.815ZM75.0708 116.329C74.5409 116.506 74.0838 116.765 73.7098 117.108C73.3358 117.451 73.0449 117.846 72.8475 118.303C72.6397 118.76 72.5255 119.248 72.5047 119.789C72.4735 120.318 72.5566 120.869 72.7436 121.44C72.9306 122.012 73.2008 122.5 73.5332 122.916C73.876 123.331 74.2604 123.653 74.6968 123.903C75.1331 124.142 75.6006 124.297 76.0993 124.339C76.598 124.391 77.1174 124.329 77.6577 124.152C78.1771 123.975 78.6239 123.726 78.9979 123.383C79.3719 123.04 79.6628 122.646 79.8809 122.188C80.0991 121.731 80.2134 121.233 80.2238 120.703C80.2342 120.173 80.1511 119.622 79.9641 119.051C79.7771 118.48 79.5173 117.991 79.1849 117.576C78.8524 117.16 78.468 116.828 78.0213 116.589C77.5746 116.35 77.0967 116.204 76.598 116.152C76.0993 116.1 75.5902 116.163 75.0708 116.329Z" fill="#C8CFD5"/>
<path id="Vector_16" d="M61.8457 116.277C62.3236 116.256 62.7599 116.287 63.1755 116.381C63.591 116.474 63.9754 116.609 64.3183 116.796C64.6611 116.983 64.9832 117.212 65.2637 117.492C65.5546 117.773 65.7935 118.084 66.0013 118.438L64.4533 120.214C64.2248 119.934 64.017 119.705 63.83 119.528C63.643 119.352 63.456 119.206 63.2898 119.092C63.1235 118.978 62.9469 118.905 62.7703 118.874C62.5937 118.843 62.4067 118.822 62.2093 118.832C61.8665 118.853 61.5548 118.947 61.2951 119.123C61.0353 119.3 60.8379 119.528 60.7133 119.819C60.5886 120.11 60.5263 120.443 60.547 120.817L60.8379 127.112L63.2274 126.998L63.3417 129.481L56.1836 129.814L56.0693 127.331L58.0848 127.237L57.7835 120.619C57.7524 119.996 57.8355 119.425 58.0225 118.905C58.2095 118.386 58.49 117.929 58.8536 117.544C59.2172 117.16 59.664 116.858 60.173 116.63C60.6717 116.432 61.2327 116.308 61.8457 116.277Z" fill="#C8CFD5"/>
<path id="Vector_17" d="M51.9658 116.391L49.3374 129.211L40.6729 127.434L41.1715 125.014L47.1453 126.24L48.7763 118.25L42.6779 117.004L43.1766 114.583L51.9658 116.391ZM49.5867 121.492L49.1088 123.84L42.6052 122.51L43.0831 120.162L49.5867 121.492Z" fill="#C8CFD5"/>
<path id="Vector_18" d="M34.6787 110.698C35.541 111.124 36.2578 111.664 36.8292 112.319C37.4006 112.973 37.8266 113.7 38.0863 114.5C38.346 115.3 38.4395 116.152 38.3668 117.035C38.2941 117.918 38.0344 118.812 37.598 119.695C37.1721 120.557 36.6318 121.274 35.9669 121.856C35.302 122.438 34.5644 122.864 33.7541 123.134C32.9437 123.404 32.0918 123.508 31.1983 123.445C30.3153 123.383 29.4426 123.144 28.5803 122.718C28.0193 122.438 27.5102 122.095 27.0427 121.679C26.5752 121.264 26.1908 120.796 25.8791 120.277C25.5674 119.757 25.3493 119.227 25.2246 118.666L27.666 117.7C27.7907 118.095 27.9466 118.459 28.1439 118.801C28.3413 119.144 28.5699 119.446 28.8296 119.705C29.0997 119.965 29.4114 120.194 29.7646 120.37C30.2425 120.609 30.7412 120.744 31.2503 120.765C31.7594 120.796 32.2476 120.723 32.7151 120.557C33.1827 120.391 33.6294 120.131 34.0346 119.768C34.4397 119.404 34.7826 118.947 35.0527 118.407C35.3332 117.846 35.489 117.295 35.5306 116.755C35.5722 116.215 35.5098 115.705 35.3436 115.228C35.1774 114.75 34.9073 114.313 34.5436 113.919C34.18 113.524 33.7229 113.191 33.1723 112.921C32.819 112.745 32.445 112.62 32.0606 112.558C31.6762 112.495 31.2918 112.474 30.9282 112.516C30.5542 112.558 30.201 112.63 29.8581 112.755L29.588 110.178C30.014 110.012 30.5127 109.919 31.0945 109.898C31.6762 109.877 32.2684 109.929 32.9022 110.064C33.5359 110.199 34.1073 110.417 34.6787 110.698Z" fill="#C8CFD5"/>
<path id="Vector_19" d="M25.7646 105.088L18.8558 113.087L21.744 115.581L20.0921 117.492L12.1133 110.604L13.7651 108.693L16.7364 111.259L23.6452 103.259L25.7646 105.088Z" fill="#C8CFD5"/>
</g>
<g id="Line">
<path id="Vector_20" d="M6.81525 92.6519C2.35833 84.2991 0 74.845 0 65.3182C0 56.0408 2.11938 47.1685 6.30618 38.9507L8.15544 39.8961C4.12447 47.8126 2.07782 56.3628 2.07782 65.3182C2.07782 74.5126 4.35303 83.6238 8.64373 91.6754L6.81525 92.6519Z" fill="#C8CFD5"/>
</g>
</g>
</g>
</svg>
