<svg width="201" height="44" viewBox="0 0 201 44" fill="none" xmlns="http://www.w3.org/2000/svg">
<g id="Right side Boxes">
<g id="Boxes below">
<path id="Box" d="M7.33156 35.938H0.0800781V43.1895H7.33156V35.938Z" fill="#55E6A5"/>
<path id="Box_2" d="M30.9419 35.938H23.6904V43.1895H30.9419V35.938Z" fill="#C8CFD5"/>
<path id="Box_3" d="M54.7402 43.3623H47.1289V35.7583H54.7402V43.3623ZM47.4886 43.0026H54.3805V36.1108H47.4886V43.0026Z" fill="#C8CFD5"/>
<path id="Box_4" d="M78.3504 43.3623H70.7393V35.7583H78.3504V43.3623ZM71.099 43.0026H77.9907V36.1108H71.099V43.0026Z" fill="#C8CFD5"/>
<path id="Box_5" d="M101.789 35.938H94.5371V43.1895H101.789V35.938Z" fill="#C8CFD5"/>
</g>
<g id="Boxes above">
<path id="Box_6" d="M32.3235 0.644531H19.4463V13.5217H32.3235V0.644531Z" fill="#55E6A5"/>
<path id="Box_7" d="M74.2639 0.644531H61.3867V13.5217H74.2639V0.644531Z" fill="#C8CFD5"/>
<path id="Box_8" d="M116.521 13.8384H103.004V0.328125H116.521V13.8384ZM103.651 13.1981H115.888V0.961197H103.651V13.1981Z" fill="#C8CFD5"/>
<path id="Box_9" d="M158.463 13.8384H144.945V0.328125H158.463V13.8384ZM145.585 13.1981H157.822V0.961197H145.585V13.1981Z" fill="#C8CFD5"/>
<path id="Box_10" d="M200.087 0.644531H187.21V13.5217H200.087V0.644531Z" fill="#C8CFD5"/>
</g>
</g>
</svg>
